IKResults
version=1
nRows=16
nColumns=40
inDegrees=yes

Units are S.I. units (second, meters, Newtons, ...)
Angles are in degrees.

endheader
time	pelvis_tilt	pelvis_list	pelvis_rotation	pelvis_tx	pelvis_ty	pelvis_tz	hip_flexion_r	hip_adduction_r	hip_rotation_r	knee_angle_r	knee_angle_r_beta	ankle_angle_r	subtalar_angle_r	mtp_angle_r	hip_flexion_l	hip_adduction_l	hip_rotation_l	knee_angle_l	knee_angle_l_beta	ankle_angle_l	subtalar_angle_l	mtp_angle_l	lumbar_extension	lumbar_bending	lumbar_rotation	arm_flex_r	arm_add_r	arm_rot_r	elbow_flex_r	pro_sup_r	wrist_flex_r	wrist_dev_r	arm_flex_l	arm_add_l	arm_rot_l	elbow_flex_l	pro_sup_l	wrist_flex_l	wrist_dev_l
     15.00000000	     -1.18920334	      1.10810144	     -3.93265796	      0.01672162	      0.90251043	      0.03862479	     -9.89235932	      0.12760739	     -6.97106690	     10.28428441	      0.17949462	     20.44557030	      0.00000000	      0.00000000	     26.82142063	     -2.97127496	     -6.74789337	     10.00876668	      0.17468593	      3.30711217	      0.00000000	      0.00000000	     -2.06728088	     -0.99175659	     13.10292476	      9.82605599	     -8.36177008	    -10.11274330	     26.79853612	     42.44017192	      0.00000002	      0.00000001	     -3.74217762	     -9.17474477	     20.20849946	     18.73094346	     37.63153625	      0.00000000	      0.00000000
     15.01000000	     -1.31152246	      1.09471123	     -4.11291022	      0.01700514	      0.90157771	      0.03788929	    -10.12429814	     -0.06606044	     -6.34668125	     11.04145697	      0.19270978	     20.09893227	      0.00000000	      0.00000000	     26.66402436	     -2.97758030	     -6.86783245	      9.05952999	      0.15811863	      2.89573326	      0.00000000	      0.00000000	     -1.77958744	     -1.03573137	     13.33951832	     10.08264348	     -8.35970375	    -10.15723944	     26.01175237	     42.30814662	      0.00000002	      0.00000001	     -3.77845358	     -8.99302558	     20.68277590	     17.61380917	     37.47798877	      0.00000000	      0.00000000
     15.02000000	     -1.35909959	      1.08870954	     -4.29338975	      0.01759560	      0.90072689	      0.03701798	    -10.69909068	     -0.23064731	     -6.36677624	     11.18619906	      0.19523600	     20.09666629	      0.00000000	      0.00000000	     26.64576571	     -3.01244885	     -6.91010597	      9.04254930	      0.15782226	      2.88892779	      0.00000000	      0.00000000	     -1.59576516	     -1.13804857	     13.50588700	     10.13377542	     -8.36023152	    -10.15959756	     25.98680315	     42.29922704	      0.00000002	      0.00000001	     -3.94874936	     -8.96940732	     20.71530973	     17.50085275	     37.45887589	      0.00000000	      0.00000000
     15.03000000	     -1.37965115	      1.11874188	     -4.50184641	      0.01839819	      0.89997829	      0.03609220	    -11.28513100	     -0.46096402	     -6.32537843	     11.39346454	      0.19885347	     20.04959508	      0.00000000	      0.00000000	     26.47136281	     -3.00271941	     -6.99063820	      9.08382427	      0.15854264	      2.88764413	      0.00000000	      0.00000000	     -1.38400431	     -1.25314690	     13.67431267	     10.15715354	     -8.34243204	    -10.16100622	     25.96808234	     42.29059867	      0.00000002	      0.00000001	     -4.14019040	     -8.95285618	     20.73975492	     17.39340253	     37.44097537	      0.00000000	      0.00000000
     15.04000000	     -1.37988246	      1.20115640	     -4.72709065	      0.01944107	      0.89932927	      0.03503903	    -11.63050080	     -0.82082004	     -5.98940230	     12.20099879	      0.21294760	     19.83561372	      0.00000000	      0.00000000	     26.24885183	     -2.90979934	     -7.65946821	      9.37591748	      0.16364063	      3.03371178	      0.00000000	      0.00000000	     -1.24156513	     -1.52679202	     13.81950564	     10.08202226	     -8.24468387	    -10.17190694	     25.74114173	     42.20513715	      0.00000002	      0.00000001	     -4.38460435	     -8.97885662	     21.00451023	     16.86697285	     37.35500735	      0.00000000	      0.00000000
     15.05000000	     -1.36574610	      1.20571537	     -4.97852110	      0.02071492	      0.89879953	      0.03402743	    -12.23753127	     -1.06137464	     -5.95249185	     12.43308193	      0.21699822	     19.77166252	      0.00000000	      0.00000000	     25.81315192	     -2.89156832	     -7.66255020	      9.59879255	      0.16753053	      2.99851887	      0.00000000	      0.00000000	     -0.97701955	     -1.62034025	     13.95978705	     10.06473257	     -8.20891715	    -10.17124331	     25.72597721	     42.19411126	      0.00000002	      0.00000001	     -4.52972832	     -8.95699452	     21.02701188	     16.79589398	     37.34129456	      0.00000000	      0.00000000
     15.06000000	     -1.30105185	      1.27456815	     -5.24291190	      0.02232804	      0.89837121	      0.03289244	    -12.87123612	     -1.43021612	     -5.83101907	     12.79940879	      0.22339183	     19.60828382	      0.00000000	      0.00000000	     25.26561158	     -2.78989119	     -7.65288216	      9.99171748	      0.17438837	      2.92568006	      0.00000000	      0.00000000	     -0.75105071	     -1.76754679	     14.13390268	      9.91787474	     -8.13059880	    -10.17386616	     25.66183960	     42.17382650	      0.00000002	      0.00000001	     -4.77825603	     -8.94460862	     21.05062135	     16.68650494	     37.32164687	      0.00000000	      0.00000000
     15.07000000	     -1.38493278	      1.34746857	     -5.58415174	      0.02391448	      0.89794927	      0.03173174	    -12.68767069	     -1.91357896	     -5.83449859	     14.50634108	      0.25318341	     19.09633853	      0.00000000	      0.00000000	     25.43643747	     -2.82120332	     -8.63251511	     11.84297141	      0.20669884	      2.60386067	      0.00000000	      0.00000000	     -0.50482584	     -1.98532941	     14.50124149	      9.51419087	     -8.07492001	    -10.13885822	     25.38915571	     41.98105272	      0.00000002	      0.00000001	     -4.86659669	     -8.91708032	     21.57546449	     16.21064722	     37.20151958	      0.00000000	      0.00000000
     15.08000000	     -1.42705009	      1.47397296	     -5.88075655	      0.02573240	      0.89776894	      0.03043275	    -12.80474161	     -2.42599597	     -5.83344325	     15.59594511	      0.27220059	     18.61318383	      0.00000000	      0.00000000	     25.13118469	     -2.70275641	     -9.11409660	     12.51204840	      0.21837644	      1.04704858	      0.00000000	      0.00000000	     -0.16636032	     -2.18799180	     14.73741951	      9.22283117	     -7.99950796	    -10.10241833	     25.28736014	     41.83701240	      0.00000002	      0.00000001	     -5.03361319	     -8.91757069	     21.94939496	     16.03405379	     37.12504553	      0.00000000	      0.00000000
     15.09000000	     -1.38699372	      1.67182092	     -6.09813170	      0.02774692	      0.89794843	      0.02902917	    -13.33231216	     -2.93254971	     -5.71986981	     15.95597284	      0.27848426	     18.40771712	      0.00000000	      0.00000000	     24.55755987	     -2.43691680	     -9.09744884	     12.74527786	      0.22244706	      0.91329700	      0.00000000	      0.00000000	      0.18476566	     -2.49337234	     14.79139101	      9.01460026	     -7.90592992	    -10.10697134	     25.22368415	     41.81632899	      0.00000002	      0.00000001	     -5.16451100	     -8.92736213	     21.97030100	     15.99538973	     37.11511907	      0.00000000	      0.00000000
     15.10000000	     -1.43198995	      2.00474206	     -6.20612453	      0.02967427	      0.89868106	      0.02738884	    -12.74273830	     -3.81516327	     -6.22666660	     18.44674110	      0.32195637	     17.28905269	      0.00000000	      0.00000000	     24.31838073	     -2.01115460	     -9.10639241	     13.31842829	      0.23245042	      0.80331730	      0.00000000	      0.00000000	      0.41662723	     -3.11171466	     14.89314636	      8.43651253	     -7.67906745	    -10.03809144	     25.02082317	     41.61029810	      0.00000002	      0.00000001	     -5.25615592	     -9.04721374	     22.42467627	     15.86668478	     37.04406526	      0.00000000	      0.00000000
     15.11000000	     -1.37825977	      2.27332590	     -6.20125497	      0.03173843	      0.90007007	      0.02563765	    -12.58843519	     -4.47180369	     -6.26533197	     20.07658356	      0.35040249	     16.09257520	      0.00000000	      0.00000000	     23.92160722	     -1.57528369	     -8.75736331	     13.95317532	      0.24352885	      0.97137900	      0.00000000	      0.00000000	      0.59863396	     -3.48139525	     14.76952839	      8.01212774	     -7.49382388	     -9.99991874	     24.84687509	     41.47713439	      0.00000002	      0.00000001	     -5.30984666	     -9.10506651	     22.70185912	     15.80326153	     37.00743080	      0.00000000	      0.00000000
     15.12000000	     -1.29030270	      2.47720177	     -6.03183352	      0.03388022	      0.90186543	      0.02370763	    -12.37205822	     -5.05575346	     -6.65657075	     21.93929562	      0.38291294	     14.81240743	      0.00000000	      0.00000000	     23.54345177	     -1.17957932	     -8.49277236	     14.86675651	      0.25947385	      1.29021236	      0.00000000	      0.00000000	      0.75909616	     -3.97760035	     14.51443091	      7.51856051	     -7.25297984	     -9.95370905	     24.60749142	     41.31561509	      0.00000002	      0.00000001	     -5.33748459	     -9.16846546	     23.02521463	     15.72996642	     36.97481870	      0.00000000	      0.00000000
     15.13000000	     -1.26423330	      2.61075561	     -5.76737777	      0.03609042	      0.90376839	      0.02169362	    -11.97491474	     -5.50809770	     -6.73636102	     23.94578859	      0.41793285	     13.10412550	      0.00000000	      0.00000000	     23.16898278	     -0.81913265	     -8.13082013	     15.67371303	      0.27355790	      1.60772170	      0.00000000	      0.00000000	      1.01955216	     -4.36150614	     14.06536317	      7.07578100	     -6.94434230	     -9.91972156	     24.45085964	     41.21195663	      0.00000002	      0.00000001	     -5.32575625	     -9.25882817	     23.19763480	     15.67214385	     36.96437772	      0.00000000	      0.00000000
     15.14000000	     -1.24776677	      2.64008736	     -5.56677882	      0.03805803	      0.90566830	      0.01958699	    -11.28891183	     -5.97813433	     -7.15367992	     26.33425276	      0.45961942	     11.28206474	      0.00000000	      0.00000000	     22.72995604	     -0.57043277	     -7.91174891	     16.34919857	      0.28534735	      2.10792380	      0.00000000	      0.00000000	      1.20656906	     -4.56426690	     13.68714169	      6.54551799	     -6.73989815	     -9.88534731	     24.18421044	     41.10142388	      0.00000002	      0.00000001	     -5.26921265	     -9.27131553	     23.35947115	     15.64475733	     36.96423283	      0.00000000	      0.00000000
     15.15000000	     -1.22344988	      2.68006814	     -5.49429211	      0.03981017	      0.90744570	      0.01743348	    -10.36227769	     -6.51209263	     -7.25380417	     29.00839329	      0.50629197	      9.32958808	      0.00000000	      0.00000000	     22.17213426	     -0.31726396	     -7.72251303	     16.85648592	      0.29420118	      2.54412090	      0.00000000	      0.00000000	      1.39066247	     -4.74611919	     13.46365139	      6.08593021	     -6.50349252	     -9.84607223	     23.92342022	     41.00321542	      0.00000002	      0.00000001	     -5.18791375	     -9.28702927	     23.47243743	     15.63461794	     36.97408250	      0.00000000	      0.00000000
